<svg viewBox="0 0 536 589" preserveAspectRatio="none" fill="none" xmlns="http://www.w3.org/2000/svg">
<path d="M364.757 0C398.663 0.910216 429.551 1.24396 460.419 2.79133C474.464 3.48916 488.47 6.53839 502.476 8.64705C507.551 9.42074 510.236 12.6368 510.864 22.2093C514.216 73.3179 518.367 124.29 521.89 175.368C524.908 219.195 527.755 263.053 530.088 306.986C532.211 346.899 534.001 386.903 535.087 426.922C536.039 462.178 536.067 497.509 535.953 532.795C535.915 544.522 534.316 556.279 533.173 567.96C532.297 576.88 529.079 582.599 523.185 583.525C510.759 585.451 498.324 588.819 485.889 588.895C438.872 589.183 391.836 588.895 344.819 587.833C308.723 587.014 272.637 584.981 236.56 582.918C199.064 580.779 161.578 578.078 124.102 575.408C91.2052 573.057 58.3276 570.281 25.4309 568.051C20.594 567.717 18.4897 563.485 17.5661 557.31C15.4428 543.111 12.8435 528.912 11.9485 514.469C8.93967 466.091 6.10227 417.668 4.10276 369.169C-0.0581234 268.423 -0.591326 167.556 0.475079 66.6733C0.60838 53.8545 1.69383 41.0508 2.29368 28.247C2.56028 22.5279 4.40745 19.6607 8.00656 19.2662C26.164 17.2789 44.2929 14.6393 62.4694 13.2892C101.05 10.4371 139.65 8.07058 178.251 5.85572C197.398 4.76347 216.565 4.35387 235.722 3.7774C279.74 2.44241 323.758 1.19845 364.767 0.0151703L364.757 0Z" fill="currentColor"/>
</svg>
