<svg viewBox="0 0 820 474" fill="none" xmlns="http://www.w3.org/2000/svg" preserveAspectRatio="none">
<g clip-path="url(#clip0_1493_75)">
<path d="M558.023 0C609.894 0.732537 657.147 1.00113 704.372 2.24645C725.857 2.80806 747.284 5.26205 768.711 6.9591C776.475 7.58175 780.583 10.1701 781.544 17.8739C786.672 59.0058 793.023 100.028 798.412 141.135C803.03 176.407 807.385 211.703 810.954 247.06C814.202 279.182 816.94 311.377 818.601 343.584C820.058 371.958 820.101 400.392 819.927 428.79C819.868 438.228 817.421 447.69 815.673 457.091C814.333 464.27 809.41 468.872 800.393 469.617C781.384 471.168 762.36 473.878 743.337 473.939C671.408 474.171 599.45 473.939 527.521 473.084C472.3 472.425 417.093 470.789 361.901 469.129C304.539 467.407 247.191 465.234 189.858 463.085C139.531 461.193 89.2331 458.959 38.9063 457.164C31.5065 456.895 28.2874 453.489 26.8744 448.52C23.6261 437.092 19.6495 425.665 18.2803 414.042C13.6773 375.108 9.33651 336.137 6.27757 297.105C-0.0879435 216.025 -0.903661 134.848 0.727774 53.6583C0.931703 43.3418 2.59227 33.0374 3.50995 22.7331C3.91781 18.1303 6.74369 15.8228 12.2498 15.5054C40.0279 13.906 67.7623 11.7816 95.5695 10.695C154.592 8.39975 213.645 6.49516 272.697 4.71265C301.99 3.83361 331.312 3.50397 360.619 3.04003C427.96 1.96564 495.3 0.964507 558.038 0.0122089L558.023 0Z" fill="currentColor"/>
</g>
<defs>
<clipPath id="clip0_1493_75">
<rect width="820" height="474" fill="white"/>
</clipPath>
</defs>
</svg>
