<svg viewBox="0 0 1088 599" preserveAspectRatio="none" fill="none" xmlns="http://www.w3.org/2000/svg">
<path d="M0 480.411C0 446.787 0 413.145 0 379.521C0.953816 361.609 1.66411 343.696 2.92233 325.801C9.45699 232.812 16.1946 139.84 22.6075 46.8502C23.196 38.4176 26.8692 33.642 36.59 32.5591C66.341 29.2393 95.9905 24.304 125.863 22.7418C229.931 17.2916 334.018 12.1078 438.187 8.53946C539.008 5.07765 639.909 3.58641 740.791 1.52707C786.006 0.603925 831.221 0.000326772 876.435 0.000326772C935.836 -0.0174261 995.216 0.692689 1054.62 1.02999C1061.76 1.0655 1066.16 3.72843 1067.3 10.013C1069.31 21.357 1072.17 32.6656 1073.1 44.0807C1077.06 92.8834 1081.26 141.704 1083.82 190.56C1088.71 283.691 1090.35 376.876 1082.97 469.955C1081.49 488.684 1076.96 507.253 1073.25 525.787C1071.56 534.238 1065.72 538.214 1054.92 538.871C1015.55 541.286 976.282 544.783 936.972 547.783C854.64 554.068 772.327 560.636 689.974 566.495C606.242 572.442 522.509 578.318 438.695 583.005C340.736 588.473 242.655 592.592 144.635 597.332C138.953 597.616 133.291 598.397 127.629 598.965H66.8686C55.9099 597.793 44.9917 596.408 34.0127 595.485C24.0483 594.651 17.534 589.982 15.119 581.94C11.6284 570.347 8.15817 558.63 6.59554 546.771C3.67321 524.705 2.13087 502.513 0.020294 480.376L0 480.411Z" fill="currentColor"/>
</svg>
