<svg viewBox="0 0 168 106" preserveAspectRatio="xMidYMid meet" fill="none" xmlns="http://www.w3.org/2000/svg" aria-hidden="true">
<g clip-path="url(#clip0_1493_88)">
<path d="M72.7209 30.1146C71.2325 23.4298 67.582 18.2012 62.71 13.5732C65.0445 13.9751 67.392 14.3006 69.7016 14.7976C75.1659 15.9767 80.6476 17.1169 86.0598 18.5218C90.012 19.5437 93.263 22.0496 96.1241 24.8522C99.2212 27.8907 101.974 31.2958 104.861 34.5691C105.379 35.1619 105.796 35.8441 106.401 36.4018C104.909 31.3548 102.69 26.6975 99.2491 22.2126C100.128 22.3489 100.617 22.3537 101.062 22.4924C107.166 24.3976 113.309 26.1825 119.343 28.2725C125.357 30.3573 129.782 34.7667 133.877 39.4663C135.86 41.7486 137.498 44.3464 139.435 46.9937C138.302 42.5776 136.525 38.6451 134.228 34.881C139.46 37.435 144.366 40.3896 148.776 44.1567C152.415 47.2648 155.694 50.6918 158.027 54.9659C159.57 57.7925 160.65 60.759 160.482 64.0796C160.27 68.2664 157.82 71.634 152.969 70.6014C143.314 68.5551 133.592 66.7598 124.022 64.359C100.658 58.4928 77.3253 52.5046 54.064 46.2449C41.3899 42.8342 28.8964 38.7891 16.3184 35.012C15.4446 34.7466 14.606 34.3744 13.7602 34.0293C10.4785 32.6683 9.30356 30.2789 10.2549 26.7865C11.1889 23.333 13.5249 20.9434 16.3189 18.9712C20.9017 15.7494 26.0634 13.8905 31.4921 13.2039C36.7522 12.5383 42.0805 12.478 47.3774 12.1049C50.3771 11.8908 53.092 12.7624 55.3986 14.542C58.9277 17.2587 62.3561 20.1158 65.6759 23.0894C68.1404 25.2948 70.377 27.774 72.7107 30.1265L72.7209 30.1146Z" fill="currentColor"/>
<path d="M7.69436 42.6229C11.1704 44.8631 14.6009 44.9627 18.1847 43.8238C20.233 43.1752 21.4158 43.6211 22.5927 45.4513C23.4289 46.7563 24.0963 48.16 24.8649 49.5045C28.0705 55.1454 32.1772 56.3152 37.8347 53.2058C41.4062 51.2422 41.4656 51.1792 44.4909 53.8584C50.1168 58.8482 56.5543 60.7436 63.9628 59.3719C64.5101 59.2726 65.4192 59.4824 65.723 59.8764C69.6613 65.038 75.1827 66.7503 81.3069 67.0348C84.4536 67.1814 87.6234 67.0769 90.767 66.9084C92.9617 66.791 94.6754 67.5547 96.1881 69.0301C97.5883 70.3902 98.9375 71.8083 100.421 73.0688C103.439 75.639 106.818 76.0966 110.358 74.3104C112.144 73.4074 113.839 72.3089 115.471 71.1511C118.242 69.1918 119.731 69.368 121.946 71.9776C123.168 73.4195 124.396 74.8915 125.826 76.1095C128.561 78.4268 131.218 78.4521 134.188 76.4381C134.423 76.2782 134.655 76.1032 134.886 75.9282C138.484 73.1857 139.236 73.1759 143.04 75.745C144.701 76.8734 146.272 78.2355 148.093 78.9987C150.249 79.8999 152.624 80.2656 155.13 80.9227C156.188 84.7861 154.28 89.3931 150.295 91.8983C145.959 94.6257 141.04 95.2432 136.097 95.547C128.202 96.0265 120.368 95.1794 112.584 93.9809C92.9507 90.9609 73.7855 85.885 54.8022 80.1424C43.0773 76.5961 31.5554 72.4388 20.9166 66.2487C17.6645 64.3529 14.637 62.0088 11.7563 59.5676C8.77792 57.0364 6.60803 53.8458 6.0345 49.8238C5.67841 47.2874 6.31334 44.9752 7.6845 42.606L7.69436 42.6229Z" fill="currentColor"/>
</g>
<defs>
<clipPath id="clip0_1493_88">
<rect width="166.212" height="105.094" fill="white" transform="translate(0.87793 0.453125)"/>
</clipPath>
</defs>
</svg>
