<svg viewBox="0 0 116 36" preserveAspectRatio="none" fill="none" xmlns="http://www.w3.org/2000/svg">
<path class="background" d="M15.5709 7.22124L62.287 3.78291L107.5 0.558497C112.626 0.181214 114.021 4.48911 114.671 13.324C115.322 22.1588 107.962 27.2 103.348 27.5396L64.2474 30.4174L17.5312 33.8558C11.5913 34.293 4.76524 37.9336 4.00024 27.5397C3.23524 17.1457 7.58056 7.80934 15.5709 7.22124Z" fill="#FFA8BA"/>
<path  class="foreground" d="M10.5 2.55859L61.3608 1.05859L95.5 2.55859C100.5 2.55859 111.5 6.1127 111.5 16.0586C111.5 26.0045 104 31.0425 99.5 31.0425L61.3608 33.0586L15.7938 31.0425C10 31.0425 0 27.7596 0 16.0586C0 4.35754 2.70619 2.55859 10.5 2.55859Z" fill="#FAAE2B"/>
</svg>
